<svg width="557" height="69" viewBox="0 0 557 69" fill="none" xmlns="http://www.w3.org/2000/svg">
<path d="M0.96 24L9.216 1.6H12.064L20.288 24H17.44L15.392 18.24H5.856L3.776 24H0.96ZM6.656 16.064H14.592L10.624 4.992L6.656 16.064ZM36.0868 24.384C34.1881 24.384 32.6094 23.904 31.3508 22.944C30.0921 21.984 29.3561 20.6827 29.1428 19.04H31.8948C32.0654 19.872 32.5028 20.5973 33.2068 21.216C33.9321 21.8133 34.9028 22.112 36.1188 22.112C37.2494 22.112 38.0814 21.8773 38.6148 21.408C39.1481 20.9173 39.4148 20.3413 39.4148 19.68C39.4148 18.72 39.0628 18.08 38.3588 17.76C37.6761 17.44 36.7054 17.152 35.4468 16.896C34.5934 16.7253 33.7401 16.48 32.8868 16.16C32.0334 15.84 31.3188 15.392 30.7428 14.816C30.1668 14.2187 29.8788 13.44 29.8788 12.48C29.8788 11.0933 30.3908 9.96267 31.4148 9.088C32.4601 8.192 33.8681 7.744 35.6388 7.744C37.3241 7.744 38.7001 8.17067 39.7668 9.024C40.8548 9.856 41.4841 11.0507 41.6548 12.608H38.9988C38.8921 11.7973 38.5401 11.168 37.9427 10.72C37.3668 10.2507 36.5881 10.016 35.6068 10.016C34.6468 10.016 33.9001 10.2187 33.3668 10.624C32.8548 11.0293 32.5988 11.5627 32.5988 12.224C32.5988 12.864 32.9294 13.3653 33.5908 13.728C34.2734 14.0907 35.1908 14.4 36.3428 14.656C37.3241 14.8693 38.2521 15.136 39.1267 15.456C40.0228 15.7547 40.7481 16.2133 41.3028 16.832C41.8788 17.4293 42.1668 18.304 42.1668 19.456C42.1881 20.8853 41.6441 22.0693 40.5348 23.008C39.4468 23.9253 37.9641 24.384 36.0868 24.384ZM52.1827 24.384C50.6681 24.384 49.3241 24.0427 48.1507 23.36C46.9774 22.656 46.0494 21.6853 45.3667 20.448C44.7054 19.2107 44.3747 17.7493 44.3747 16.064C44.3747 14.4 44.7054 12.9493 45.3667 11.712C46.0281 10.4533 46.9454 9.48267 48.1187 8.8C49.3134 8.096 50.6894 7.744 52.2467 7.744C53.7827 7.744 55.1054 8.096 56.2147 8.8C57.3454 9.48267 58.2094 10.3893 58.8067 11.52C59.4041 12.6507 59.7027 13.8667 59.7027 15.168C59.7027 15.4027 59.6921 15.6373 59.6707 15.872C59.6707 16.1067 59.6707 16.3733 59.6707 16.672H47.0307C47.0947 17.888 47.3721 18.9013 47.8627 19.712C48.3747 20.5013 49.0041 21.0987 49.7507 21.504C50.5187 21.9093 51.3294 22.112 52.1827 22.112C53.2921 22.112 54.2201 21.856 54.9667 21.344C55.7134 20.832 56.2574 20.1387 56.5987 19.264H59.2547C58.8281 20.736 58.0067 21.9627 56.7907 22.944C55.5961 23.904 54.0601 24.384 52.1827 24.384ZM52.1827 10.016C50.9027 10.016 49.7614 10.4107 48.7587 11.2C47.7774 11.968 47.2121 13.0987 47.0627 14.592H57.0468C56.9827 13.1627 56.4921 12.0427 55.5747 11.232C54.6574 10.4213 53.5267 10.016 52.1827 10.016ZM62.3055 24V8.128H64.7375L64.8975 10.976C65.4095 9.97333 66.1455 9.184 67.1055 8.608C68.0655 8.032 69.1535 7.744 70.3695 7.744C72.2468 7.744 73.7402 8.32 74.8495 9.472C75.9802 10.6027 76.5455 12.352 76.5455 14.72V24H73.8575V15.008C73.8575 11.7013 72.4922 10.048 69.7615 10.048C68.3962 10.048 67.2548 10.5493 66.3375 11.552C65.4415 12.5333 64.9935 13.9413 64.9935 15.776V24H62.3055ZM81.29 4.608C80.7567 4.608 80.3087 4.43733 79.946 4.096C79.6047 3.73333 79.434 3.28533 79.434 2.752C79.434 2.24 79.6047 1.81333 79.946 1.472C80.3087 1.13067 80.7567 0.959999 81.29 0.959999C81.802 0.959999 82.2393 1.13067 82.602 1.472C82.9647 1.81333 83.146 2.24 83.146 2.752C83.146 3.28533 82.9647 3.73333 82.602 4.096C82.2393 4.43733 81.802 4.608 81.29 4.608ZM79.946 24V8.128H82.634V24H79.946ZM93.5862 24.384C92.0929 24.384 90.7489 24.0427 89.5542 23.36C88.3596 22.6773 87.4102 21.7173 86.7062 20.48C86.0236 19.2213 85.6822 17.7493 85.6822 16.064C85.6822 14.3787 86.0342 12.9173 86.7382 11.68C87.4422 10.4213 88.3916 9.45067 89.5862 8.768C90.8022 8.08533 92.1569 7.744 93.6502 7.744C95.1436 7.744 96.4876 8.08533 97.6822 8.768C98.8769 9.45067 99.8156 10.4213 100.498 11.68C101.202 12.9173 101.554 14.3787 101.554 16.064C101.554 17.7493 101.202 19.2213 100.498 20.48C99.7942 21.7173 98.8342 22.6773 97.6182 23.36C96.4236 24.0427 95.0796 24.384 93.5862 24.384ZM93.5862 22.08C94.5036 22.08 95.3569 21.856 96.1462 21.408C96.9356 20.96 97.5756 20.288 98.0662 19.392C98.5569 18.496 98.8022 17.3867 98.8022 16.064C98.8022 14.7413 98.5569 13.632 98.0662 12.736C97.5969 11.84 96.9676 11.168 96.1782 10.72C95.3889 10.272 94.5462 10.048 93.6502 10.048C92.7329 10.048 91.8796 10.272 91.0902 10.72C90.3009 11.168 89.6609 11.84 89.1702 12.736C88.6796 13.632 88.4342 14.7413 88.4342 16.064C88.4342 17.3867 88.6796 18.496 89.1702 19.392C89.6609 20.288 90.2902 20.96 91.0582 21.408C91.8476 21.856 92.6902 22.08 93.5862 22.08ZM104.332 24V8.128H106.764L106.988 11.168C107.478 10.1227 108.225 9.29067 109.228 8.672C110.23 8.05333 111.468 7.744 112.94 7.744V10.56H112.204C111.265 10.56 110.401 10.7307 109.612 11.072C108.822 11.392 108.193 11.9467 107.724 12.736C107.254 13.5253 107.02 14.6133 107.02 16V24H104.332ZM114.677 15.84V13.568H127.349V15.84H114.677ZM132.171 31.04L136.107 22.464H135.179L128.875 8.128H131.787L137.035 20.48L142.603 8.128H145.387L134.987 31.04H132.171ZM152.9 24.384C151.386 24.384 150.042 24.0427 148.868 23.36C147.695 22.656 146.767 21.6853 146.084 20.448C145.423 19.2107 145.092 17.7493 145.092 16.064C145.092 14.4 145.423 12.9493 146.084 11.712C146.746 10.4533 147.663 9.48267 148.836 8.8C150.031 8.096 151.407 7.744 152.964 7.744C154.5 7.744 155.823 8.096 156.932 8.8C158.063 9.48267 158.927 10.3893 159.524 11.52C160.122 12.6507 160.42 13.8667 160.42 15.168C160.42 15.4027 160.41 15.6373 160.388 15.872C160.388 16.1067 160.388 16.3733 160.388 16.672H147.748C147.812 17.888 148.09 18.9013 148.58 19.712C149.092 20.5013 149.722 21.0987 150.468 21.504C151.236 21.9093 152.047 22.112 152.9 22.112C154.01 22.112 154.938 21.856 155.684 21.344C156.431 20.832 156.975 20.1387 157.316 19.264H159.972C159.546 20.736 158.724 21.9627 157.508 22.944C156.314 23.904 154.778 24.384 152.9 24.384ZM152.9 10.016C151.62 10.016 150.479 10.4107 149.476 11.2C148.495 11.968 147.93 13.0987 147.78 14.592H157.764C157.7 13.1627 157.21 12.0427 156.292 11.232C155.375 10.4213 154.244 10.016 152.9 10.016ZM168.303 24.384C166.98 24.384 165.882 24.16 165.007 23.712C164.132 23.264 163.482 22.6667 163.055 21.92C162.628 21.1733 162.415 20.3627 162.415 19.488C162.415 17.8667 163.034 16.6187 164.271 15.744C165.508 14.8693 167.194 14.432 169.327 14.432H173.615V14.24C173.615 12.8533 173.252 11.808 172.527 11.104C171.802 10.3787 170.831 10.016 169.615 10.016C168.57 10.016 167.663 10.2827 166.895 10.816C166.148 11.328 165.679 12.0853 165.487 13.088H162.735C162.842 11.936 163.226 10.9653 163.887 10.176C164.57 9.38667 165.412 8.78933 166.415 8.384C167.418 7.95733 168.484 7.744 169.615 7.744C171.834 7.744 173.498 8.34133 174.607 9.536C175.738 10.7093 176.303 12.2773 176.303 14.24V24H173.903L173.743 21.152C173.295 22.048 172.634 22.816 171.759 23.456C170.906 24.0747 169.754 24.384 168.303 24.384ZM168.719 22.112C169.743 22.112 170.618 21.8453 171.343 21.312C172.09 20.7787 172.655 20.0853 173.039 19.232C173.423 18.3787 173.615 17.4827 173.615 16.544V16.512H169.551C167.972 16.512 166.852 16.7893 166.191 17.344C165.551 17.8773 165.231 18.5493 165.231 19.36C165.231 20.192 165.53 20.864 166.127 21.376C166.746 21.8667 167.61 22.112 168.719 22.112ZM179.375 24V8.128H181.807L182.031 11.168C182.522 10.1227 183.269 9.29067 184.271 8.672C185.274 8.05333 186.511 7.744 187.983 7.744V10.56H187.247C186.309 10.56 185.445 10.7307 184.655 11.072C183.866 11.392 183.237 11.9467 182.767 12.736C182.298 13.5253 182.063 14.6133 182.063 16V24H179.375ZM204.749 24.384C203.171 24.384 201.784 24.0213 200.589 23.296C199.416 22.5707 198.499 21.5787 197.837 20.32C197.197 19.0613 196.877 17.632 196.877 16.032C196.877 14.432 197.208 13.0133 197.869 11.776C198.531 10.5173 199.448 9.536 200.621 8.832C201.795 8.10667 203.181 7.744 204.781 7.744C206.083 7.744 207.235 8.01067 208.237 8.544C209.24 9.07733 210.019 9.824 210.573 10.784V0.959999H213.261V24H210.829L210.573 21.376C210.061 22.144 209.325 22.8373 208.365 23.456C207.405 24.0747 206.2 24.384 204.749 24.384ZM205.037 22.048C206.104 22.048 207.043 21.8027 207.853 21.312C208.685 20.8 209.325 20.096 209.773 19.2C210.243 18.304 210.477 17.2587 210.477 16.064C210.477 14.8693 210.243 13.824 209.773 12.928C209.325 12.032 208.685 11.3387 207.853 10.848C207.043 10.336 206.104 10.08 205.037 10.08C203.992 10.08 203.053 10.336 202.221 10.848C201.411 11.3387 200.771 12.032 200.301 12.928C199.853 13.824 199.629 14.8693 199.629 16.064C199.629 17.2587 199.853 18.304 200.301 19.2C200.771 20.096 201.411 20.8 202.221 21.312C203.053 21.8027 203.992 22.048 205.037 22.048ZM223.819 24.384C222.304 24.384 220.96 24.0427 219.787 23.36C218.614 22.656 217.686 21.6853 217.003 20.448C216.342 19.2107 216.011 17.7493 216.011 16.064C216.011 14.4 216.342 12.9493 217.003 11.712C217.664 10.4533 218.582 9.48267 219.755 8.8C220.95 8.096 222.326 7.744 223.883 7.744C225.419 7.744 226.742 8.096 227.851 8.8C228.982 9.48267 229.846 10.3893 230.443 11.52C231.04 12.6507 231.339 13.8667 231.339 15.168C231.339 15.4027 231.328 15.6373 231.307 15.872C231.307 16.1067 231.307 16.3733 231.307 16.672H218.667C218.731 17.888 219.008 18.9013 219.499 19.712C220.011 20.5013 220.64 21.0987 221.387 21.504C222.155 21.9093 222.966 22.112 223.819 22.112C224.928 22.112 225.856 21.856 226.603 21.344C227.35 20.832 227.894 20.1387 228.235 19.264H230.891C230.464 20.736 229.643 21.9627 228.427 22.944C227.232 23.904 225.696 24.384 223.819 24.384ZM223.819 10.016C222.539 10.016 221.398 10.4107 220.395 11.2C219.414 11.968 218.848 13.0987 218.699 14.592H228.683C228.619 13.1627 228.128 12.0427 227.211 11.232C226.294 10.4213 225.163 10.016 223.819 10.016ZM240.022 24.384C238.123 24.384 236.544 23.904 235.286 22.944C234.027 21.984 233.291 20.6827 233.078 19.04H235.83C236 19.872 236.438 20.5973 237.142 21.216C237.867 21.8133 238.838 22.112 240.054 22.112C241.184 22.112 242.016 21.8773 242.55 21.408C243.083 20.9173 243.35 20.3413 243.35 19.68C243.35 18.72 242.998 18.08 242.294 17.76C241.611 17.44 240.64 17.152 239.382 16.896C238.528 16.7253 237.675 16.48 236.822 16.16C235.968 15.84 235.254 15.392 234.678 14.816C234.102 14.2187 233.814 13.44 233.814 12.48C233.814 11.0933 234.326 9.96267 235.35 9.088C236.395 8.192 237.803 7.744 239.574 7.744C241.259 7.744 242.635 8.17067 243.702 9.024C244.79 9.856 245.419 11.0507 245.59 12.608H242.934C242.827 11.7973 242.475 11.168 241.878 10.72C241.302 10.2507 240.523 10.016 239.542 10.016C238.582 10.016 237.835 10.2187 237.302 10.624C236.79 11.0293 236.534 11.5627 236.534 12.224C236.534 12.864 236.864 13.3653 237.526 13.728C238.208 14.0907 239.126 14.4 240.278 14.656C241.259 14.8693 242.187 15.136 243.062 15.456C243.958 15.7547 244.683 16.2133 245.238 16.832C245.814 17.4293 246.102 18.304 246.102 19.456C246.123 20.8853 245.579 22.0693 244.47 23.008C243.382 23.9253 241.899 24.384 240.022 24.384ZM250.614 4.608C250.08 4.608 249.632 4.43733 249.27 4.096C248.928 3.73333 248.758 3.28533 248.758 2.752C248.758 2.24 248.928 1.81333 249.27 1.472C249.632 1.13067 250.08 0.959999 250.614 0.959999C251.126 0.959999 251.563 1.13067 251.926 1.472C252.288 1.81333 252.47 2.24 252.47 2.752C252.47 3.28533 252.288 3.73333 251.926 4.096C251.563 4.43733 251.126 4.608 250.614 4.608ZM249.27 24V8.128H251.958V24H249.27ZM261.95 19.008C261.054 19.008 260.233 18.8907 259.486 18.656L257.886 20.16C258.121 20.3307 258.409 20.48 258.75 20.608C259.113 20.7147 259.625 20.8213 260.286 20.928C260.947 21.0133 261.875 21.1093 263.07 21.216C265.203 21.3653 266.729 21.856 267.646 22.688C268.563 23.52 269.022 24.608 269.022 25.952C269.022 26.8693 268.766 27.744 268.254 28.576C267.763 29.408 266.995 30.0907 265.95 30.624C264.926 31.1573 263.603 31.424 261.982 31.424C260.553 31.424 259.283 31.232 258.174 30.848C257.065 30.4853 256.201 29.92 255.582 29.152C254.963 28.4053 254.654 27.456 254.654 26.304C254.654 25.7067 254.814 25.056 255.134 24.352C255.454 23.6693 256.051 23.0187 256.926 22.4C256.457 22.208 256.051 22.0053 255.71 21.792C255.39 21.5573 255.091 21.3013 254.814 21.024V20.288L257.534 17.6C256.275 16.5333 255.646 15.1253 255.646 13.376C255.646 12.3307 255.891 11.3813 256.382 10.528C256.873 9.67467 257.587 9.00267 258.526 8.512C259.465 8 260.606 7.744 261.95 7.744C262.867 7.744 263.699 7.872 264.446 8.128H270.302V10.144L267.326 10.272C267.945 11.168 268.254 12.2027 268.254 13.376C268.254 14.4213 267.998 15.3707 267.486 16.224C266.995 17.0773 266.281 17.76 265.342 18.272C264.425 18.7627 263.294 19.008 261.95 19.008ZM261.95 16.8C263.081 16.8 263.977 16.512 264.638 15.936C265.321 15.3387 265.662 14.4853 265.662 13.376C265.662 12.288 265.321 11.456 264.638 10.88C263.977 10.2827 263.081 9.984 261.95 9.984C260.798 9.984 259.881 10.2827 259.198 10.88C258.537 11.456 258.206 12.288 258.206 13.376C258.206 14.4853 258.537 15.3387 259.198 15.936C259.881 16.512 260.798 16.8 261.95 16.8ZM257.278 26.048C257.278 27.1147 257.726 27.904 258.622 28.416C259.518 28.9493 260.638 29.216 261.982 29.216C263.305 29.216 264.361 28.928 265.15 28.352C265.961 27.776 266.366 27.008 266.366 26.048C266.366 25.3653 266.089 24.768 265.534 24.256C264.979 23.7653 263.955 23.4773 262.462 23.392C261.289 23.3067 260.275 23.2 259.422 23.072C258.547 23.5413 257.971 24.0427 257.694 24.576C257.417 25.1307 257.278 25.6213 257.278 26.048ZM272.374 24V8.128H274.806L274.966 10.976C275.478 9.97333 276.214 9.184 277.174 8.608C278.134 8.032 279.222 7.744 280.438 7.744C282.316 7.744 283.809 8.32 284.918 9.472C286.049 10.6027 286.614 12.352 286.614 14.72V24H283.926V15.008C283.926 11.7013 282.561 10.048 279.83 10.048C278.465 10.048 277.324 10.5493 276.406 11.552C275.51 12.5333 275.062 13.9413 275.062 15.776V24H272.374ZM303.315 24.384C301.417 24.384 299.838 23.904 298.579 22.944C297.321 21.984 296.585 20.6827 296.371 19.04H299.123C299.294 19.872 299.731 20.5973 300.435 21.216C301.161 21.8133 302.131 22.112 303.347 22.112C304.478 22.112 305.31 21.8773 305.843 21.408C306.377 20.9173 306.643 20.3413 306.643 19.68C306.643 18.72 306.291 18.08 305.587 17.76C304.905 17.44 303.934 17.152 302.675 16.896C301.822 16.7253 300.969 16.48 300.115 16.16C299.262 15.84 298.547 15.392 297.971 14.816C297.395 14.2187 297.107 13.44 297.107 12.48C297.107 11.0933 297.619 9.96267 298.643 9.088C299.689 8.192 301.097 7.744 302.867 7.744C304.553 7.744 305.929 8.17067 306.995 9.024C308.083 9.856 308.713 11.0507 308.883 12.608H306.227C306.121 11.7973 305.769 11.168 305.171 10.72C304.595 10.2507 303.817 10.016 302.835 10.016C301.875 10.016 301.129 10.2187 300.595 10.624C300.083 11.0293 299.827 11.5627 299.827 12.224C299.827 12.864 300.158 13.3653 300.819 13.728C301.502 14.0907 302.419 14.4 303.571 14.656C304.553 14.8693 305.481 15.136 306.355 15.456C307.251 15.7547 307.977 16.2133 308.531 16.832C309.107 17.4293 309.395 18.304 309.395 19.456C309.417 20.8853 308.873 22.0693 307.763 23.008C306.675 23.9253 305.193 24.384 303.315 24.384ZM317.829 24C316.378 24 315.237 23.648 314.405 22.944C313.573 22.24 313.157 20.9707 313.157 19.136V10.4H310.405V8.128H313.157L313.509 4.32H315.845V8.128H320.517V10.4H315.845V19.136C315.845 20.1387 316.047 20.8213 316.453 21.184C316.858 21.5253 317.573 21.696 318.597 21.696H320.261V24H317.829ZM336.86 8.128V24H334.428L334.268 21.152C333.756 22.1547 333.02 22.944 332.06 23.52C331.1 24.096 330.012 24.384 328.796 24.384C326.918 24.384 325.414 23.8187 324.284 22.688C323.174 21.536 322.62 19.776 322.62 17.408V8.128H325.308V17.12C325.308 20.4267 326.673 22.08 329.404 22.08C330.769 22.08 331.9 21.5893 332.796 20.608C333.713 19.6053 334.172 18.1867 334.172 16.352V8.128H336.86ZM347.524 24.384C345.946 24.384 344.559 24.0213 343.364 23.296C342.191 22.5707 341.274 21.5787 340.612 20.32C339.972 19.0613 339.652 17.632 339.652 16.032C339.652 14.432 339.983 13.0133 340.644 11.776C341.306 10.5173 342.223 9.536 343.396 8.832C344.57 8.10667 345.956 7.744 347.556 7.744C348.858 7.744 350.01 8.01067 351.012 8.544C352.015 9.07733 352.794 9.824 353.348 10.784V0.959999H356.036V24H353.604L353.348 21.376C352.836 22.144 352.1 22.8373 351.14 23.456C350.18 24.0747 348.975 24.384 347.524 24.384ZM347.812 22.048C348.879 22.048 349.818 21.8027 350.628 21.312C351.46 20.8 352.1 20.096 352.548 19.2C353.018 18.304 353.252 17.2587 353.252 16.064C353.252 14.8693 353.018 13.824 352.548 12.928C352.1 12.032 351.46 11.3387 350.628 10.848C349.818 10.336 348.879 10.08 347.812 10.08C346.767 10.08 345.828 10.336 344.996 10.848C344.186 11.3387 343.546 12.032 343.076 12.928C342.628 13.824 342.404 14.8693 342.404 16.064C342.404 17.2587 342.628 18.304 343.076 19.2C343.546 20.096 344.186 20.8 344.996 21.312C345.828 21.8027 346.767 22.048 347.812 22.048ZM366.594 24.384C365.079 24.384 363.735 24.0427 362.562 23.36C361.389 22.656 360.461 21.6853 359.778 20.448C359.117 19.2107 358.786 17.7493 358.786 16.064C358.786 14.4 359.117 12.9493 359.778 11.712C360.439 10.4533 361.357 9.48267 362.53 8.8C363.725 8.096 365.101 7.744 366.658 7.744C368.194 7.744 369.517 8.096 370.626 8.8C371.757 9.48267 372.621 10.3893 373.218 11.52C373.815 12.6507 374.114 13.8667 374.114 15.168C374.114 15.4027 374.103 15.6373 374.082 15.872C374.082 16.1067 374.082 16.3733 374.082 16.672H361.442C361.506 17.888 361.783 18.9013 362.274 19.712C362.786 20.5013 363.415 21.0987 364.162 21.504C364.93 21.9093 365.741 22.112 366.594 22.112C367.703 22.112 368.631 21.856 369.378 21.344C370.125 20.832 370.669 20.1387 371.01 19.264H373.666C373.239 20.736 372.418 21.9627 371.202 22.944C370.007 23.904 368.471 24.384 366.594 24.384ZM366.594 10.016C365.314 10.016 364.173 10.4107 363.17 11.2C362.189 11.968 361.623 13.0987 361.474 14.592H371.458C371.394 13.1627 370.903 12.0427 369.986 11.232C369.069 10.4213 367.938 10.016 366.594 10.016ZM376.717 24V8.128H379.149L379.309 10.976C379.821 9.97333 380.557 9.184 381.517 8.608C382.477 8.032 383.565 7.744 384.781 7.744C386.658 7.744 388.151 8.32 389.261 9.472C390.391 10.6027 390.957 12.352 390.957 14.72V24H388.269V15.008C388.269 11.7013 386.903 10.048 384.173 10.048C382.807 10.048 381.666 10.5493 380.749 11.552C379.853 12.5333 379.405 13.9413 379.405 15.776V24H376.717ZM400.341 24C398.891 24 397.749 23.648 396.917 22.944C396.085 22.24 395.669 20.9707 395.669 19.136V10.4H392.917V8.128H395.669L396.021 4.32H398.357V8.128H403.029V10.4H398.357V19.136C398.357 20.1387 398.56 20.8213 398.965 21.184C399.371 21.5253 400.085 21.696 401.109 21.696H402.773V24H400.341ZM416.193 24L411.553 8.128H414.241L417.601 20.576L421.313 8.128H424.353L428.097 20.576L431.425 8.128H434.145L429.505 24H426.753L422.849 10.912L418.945 24H416.193ZM436.158 24V0.959999H438.846V10.848C439.379 9.86667 440.137 9.10933 441.118 8.576C442.099 8.02133 443.166 7.744 444.318 7.744C446.153 7.744 447.625 8.32 448.734 9.472C449.843 10.6027 450.398 12.352 450.398 14.72V24H447.742V15.008C447.742 11.7013 446.409 10.048 443.742 10.048C442.355 10.048 441.193 10.5493 440.254 11.552C439.315 12.5333 438.846 13.9413 438.846 15.776V24H436.158ZM460.742 24.384C459.249 24.384 457.905 24.0427 456.71 23.36C455.516 22.6773 454.566 21.7173 453.862 20.48C453.18 19.2213 452.838 17.7493 452.838 16.064C452.838 14.3787 453.19 12.9173 453.894 11.68C454.598 10.4213 455.548 9.45067 456.742 8.768C457.958 8.08533 459.313 7.744 460.806 7.744C462.3 7.744 463.644 8.08533 464.838 8.768C466.033 9.45067 466.972 10.4213 467.654 11.68C468.358 12.9173 468.71 14.3787 468.71 16.064C468.71 17.7493 468.358 19.2213 467.654 20.48C466.95 21.7173 465.99 22.6773 464.774 23.36C463.58 24.0427 462.236 24.384 460.742 24.384ZM460.742 22.08C461.66 22.08 462.513 21.856 463.302 21.408C464.092 20.96 464.732 20.288 465.222 19.392C465.713 18.496 465.958 17.3867 465.958 16.064C465.958 14.7413 465.713 13.632 465.222 12.736C464.753 11.84 464.124 11.168 463.334 10.72C462.545 10.272 461.702 10.048 460.806 10.048C459.889 10.048 459.036 10.272 458.246 10.72C457.457 11.168 456.817 11.84 456.326 12.736C455.836 13.632 455.59 14.7413 455.59 16.064C455.59 17.3867 455.836 18.496 456.326 19.392C456.817 20.288 457.446 20.96 458.214 21.408C459.004 21.856 459.846 22.08 460.742 22.08ZM485.269 24C483.818 24 482.677 23.648 481.845 22.944C481.013 22.24 480.597 20.9707 480.597 19.136V10.4H477.845V8.128H480.597L480.949 4.32H483.285V8.128H487.957V10.4H483.285V19.136C483.285 20.1387 483.487 20.8213 483.893 21.184C484.298 21.5253 485.013 21.696 486.037 21.696H487.701V24H485.269ZM490.412 24V8.128H492.844L493.068 11.168C493.558 10.1227 494.305 9.29067 495.308 8.672C496.31 8.05333 497.548 7.744 499.02 7.744V10.56H498.284C497.345 10.56 496.481 10.7307 495.692 11.072C494.902 11.392 494.273 11.9467 493.804 12.736C493.334 13.5253 493.1 14.6133 493.1 16V24H490.412ZM502.805 31.04L506.741 22.464H505.813L499.509 8.128H502.421L507.669 20.48L513.237 8.128H516.021L505.621 31.04H502.805ZM519.53 4.608C518.997 4.608 518.549 4.43733 518.186 4.096C517.845 3.73333 517.674 3.28533 517.674 2.752C517.674 2.24 517.845 1.81333 518.186 1.472C518.549 1.13067 518.997 0.959999 519.53 0.959999C520.042 0.959999 520.479 1.13067 520.842 1.472C521.205 1.81333 521.386 2.24 521.386 2.752C521.386 3.28533 521.205 3.73333 520.842 4.096C520.479 4.43733 520.042 4.608 519.53 4.608ZM518.186 24V8.128H520.874V24H518.186ZM524.594 24V8.128H527.026L527.186 10.976C527.698 9.97333 528.434 9.184 529.394 8.608C530.354 8.032 531.442 7.744 532.658 7.744C534.536 7.744 536.029 8.32 537.138 9.472C538.269 10.6027 538.834 12.352 538.834 14.72V24H536.146V15.008C536.146 11.7013 534.781 10.048 532.05 10.048C530.685 10.048 529.544 10.5493 528.626 11.552C527.73 12.5333 527.282 13.9413 527.282 15.776V24H524.594ZM548.219 19.008C547.323 19.008 546.501 18.8907 545.755 18.656L544.155 20.16C544.389 20.3307 544.677 20.48 545.019 20.608C545.381 20.7147 545.893 20.8213 546.555 20.928C547.216 21.0133 548.144 21.1093 549.339 21.216C551.472 21.3653 552.997 21.856 553.915 22.688C554.832 23.52 555.291 24.608 555.291 25.952C555.291 26.8693 555.035 27.744 554.523 28.576C554.032 29.408 553.264 30.0907 552.219 30.624C551.195 31.1573 549.872 31.424 548.251 31.424C546.821 31.424 545.552 31.232 544.443 30.848C543.333 30.4853 542.469 29.92 541.851 29.152C541.232 28.4053 540.923 27.456 540.923 26.304C540.923 25.7067 541.083 25.056 541.403 24.352C541.723 23.6693 542.32 23.0187 543.195 22.4C542.725 22.208 542.32 22.0053 541.979 21.792C541.659 21.5573 541.36 21.3013 541.083 21.024V20.288L543.803 17.6C542.544 16.5333 541.915 15.1253 541.915 13.376C541.915 12.3307 542.16 11.3813 542.651 10.528C543.141 9.67467 543.856 9.00267 544.795 8.512C545.733 8 546.875 7.744 548.219 7.744C549.136 7.744 549.968 7.872 550.715 8.128H556.571V10.144L553.595 10.272C554.213 11.168 554.523 12.2027 554.523 13.376C554.523 14.4213 554.267 15.3707 553.755 16.224C553.264 17.0773 552.549 17.76 551.611 18.272C550.693 18.7627 549.563 19.008 548.219 19.008ZM548.219 16.8C549.349 16.8 550.245 16.512 550.907 15.936C551.589 15.3387 551.931 14.4853 551.931 13.376C551.931 12.288 551.589 11.456 550.907 10.88C550.245 10.2827 549.349 9.984 548.219 9.984C547.067 9.984 546.149 10.2827 545.467 10.88C544.805 11.456 544.475 12.288 544.475 13.376C544.475 14.4853 544.805 15.3387 545.467 15.936C546.149 16.512 547.067 16.8 548.219 16.8ZM543.547 26.048C543.547 27.1147 543.995 27.904 544.891 28.416C545.787 28.9493 546.907 29.216 548.251 29.216C549.573 29.216 550.629 28.928 551.419 28.352C552.229 27.776 552.635 27.008 552.635 26.048C552.635 25.3653 552.357 24.768 551.803 24.256C551.248 23.7653 550.224 23.4773 548.731 23.392C547.557 23.3067 546.544 23.2 545.691 23.072C544.816 23.5413 544.24 24.0427 543.963 24.576C543.685 25.1307 543.547 25.6213 543.547 26.048ZM8.48 61C7.02933 61 5.888 60.648 5.056 59.944C4.224 59.24 3.808 57.9707 3.808 56.136V47.4H1.056V45.128H3.808L4.16 41.32H6.496V45.128H11.168V47.4H6.496V56.136C6.496 57.1387 6.69867 57.8213 7.104 58.184C7.50933 58.5253 8.224 58.696 9.248 58.696H10.912V61H8.48ZM20.4175 61.384C18.9242 61.384 17.5802 61.0427 16.3855 60.36C15.1908 59.6773 14.2415 58.7173 13.5375 57.48C12.8548 56.2213 12.5135 54.7493 12.5135 53.064C12.5135 51.3787 12.8655 49.9173 13.5695 48.68C14.2735 47.4213 15.2228 46.4507 16.4175 45.768C17.6335 45.0853 18.9882 44.744 20.4815 44.744C21.9748 44.744 23.3188 45.0853 24.5135 45.768C25.7082 46.4507 26.6468 47.4213 27.3295 48.68C28.0335 49.9173 28.3855 51.3787 28.3855 53.064C28.3855 54.7493 28.0335 56.2213 27.3295 57.48C26.6255 58.7173 25.6655 59.6773 24.4495 60.36C23.2548 61.0427 21.9108 61.384 20.4175 61.384ZM20.4175 59.08C21.3348 59.08 22.1882 58.856 22.9775 58.408C23.7668 57.96 24.4068 57.288 24.8975 56.392C25.3882 55.496 25.6335 54.3867 25.6335 53.064C25.6335 51.7413 25.3882 50.632 24.8975 49.736C24.4282 48.84 23.7988 48.168 23.0095 47.72C22.2202 47.272 21.3775 47.048 20.4815 47.048C19.5642 47.048 18.7108 47.272 17.9215 47.72C17.1322 48.168 16.4922 48.84 16.0015 49.736C15.5108 50.632 15.2655 51.7413 15.2655 53.064C15.2655 54.3867 15.5108 55.496 16.0015 56.392C16.4922 57.288 17.1215 57.96 17.8895 58.408C18.6788 58.856 19.5215 59.08 20.4175 59.08ZM44.7517 61.384C42.8531 61.384 41.2744 60.904 40.0157 59.944C38.7571 58.984 38.0211 57.6827 37.8077 56.04H40.5597C40.7304 56.872 41.1677 57.5973 41.8717 58.216C42.5971 58.8133 43.5677 59.112 44.7837 59.112C45.9144 59.112 46.7464 58.8773 47.2797 58.408C47.8131 57.9173 48.0797 57.3413 48.0797 56.68C48.0797 55.72 47.7277 55.08 47.0237 54.76C46.3411 54.44 45.3704 54.152 44.1117 53.896C43.2584 53.7253 42.4051 53.48 41.5517 53.16C40.6984 52.84 39.9837 52.392 39.4077 51.816C38.8317 51.2187 38.5437 50.44 38.5437 49.48C38.5437 48.0933 39.0557 46.9627 40.0797 46.088C41.1251 45.192 42.5331 44.744 44.3037 44.744C45.9891 44.744 47.3651 45.1707 48.4317 46.024C49.5197 46.856 50.1491 48.0507 50.3197 49.608H47.6637C47.5571 48.7973 47.2051 48.168 46.6077 47.72C46.0317 47.2507 45.2531 47.016 44.2717 47.016C43.3117 47.016 42.5651 47.2187 42.0317 47.624C41.5197 48.0293 41.2637 48.5627 41.2637 49.224C41.2637 49.864 41.5944 50.3653 42.2557 50.728C42.9384 51.0907 43.8557 51.4 45.0077 51.656C45.9891 51.8693 46.9171 52.136 47.7917 52.456C48.6877 52.7547 49.4131 53.2133 49.9677 53.832C50.5437 54.4293 50.8317 55.304 50.8317 56.456C50.8531 57.8853 50.3091 59.0693 49.1997 60.008C48.1117 60.9253 46.6291 61.384 44.7517 61.384ZM53.7118 68.04V45.128H56.1438L56.3998 47.752C56.9117 46.984 57.6371 46.2907 58.5758 45.672C59.5358 45.0533 60.7517 44.744 62.2238 44.744C63.8024 44.744 65.1784 45.1067 66.3518 45.832C67.5251 46.5573 68.4318 47.5493 69.0718 48.808C69.7331 50.0667 70.0638 51.496 70.0638 53.096C70.0638 54.696 69.7331 56.1253 69.0718 57.384C68.4318 58.6213 67.5144 59.6027 66.3198 60.328C65.1464 61.032 63.7704 61.384 62.1918 61.384C60.8904 61.384 59.7277 61.1173 58.7038 60.584C57.7011 60.0507 56.9331 59.304 56.3998 58.344V68.04H53.7118ZM61.9038 59.048C62.9704 59.048 63.9091 58.8027 64.7198 58.312C65.5304 57.8 66.1704 57.096 66.6398 56.2C67.1091 55.304 67.3438 54.2587 67.3438 53.064C67.3438 51.8693 67.1091 50.824 66.6398 49.928C66.1704 49.032 65.5304 48.3387 64.7198 47.848C63.9091 47.336 62.9704 47.08 61.9038 47.08C60.8371 47.08 59.8984 47.336 59.0878 47.848C58.2771 48.3387 57.6371 49.032 57.1677 49.928C56.6984 50.824 56.4637 51.8693 56.4637 53.064C56.4637 54.2587 56.6984 55.304 57.1677 56.2C57.6371 57.096 58.2771 57.8 59.0878 58.312C59.8984 58.8027 60.8371 59.048 61.9038 59.048ZM79.9815 61.384C78.4668 61.384 77.1228 61.0427 75.9495 60.36C74.7762 59.656 73.8482 58.6853 73.1655 57.448C72.5042 56.2107 72.1735 54.7493 72.1735 53.064C72.1735 51.4 72.5042 49.9493 73.1655 48.712C73.8268 47.4533 74.7442 46.4827 75.9175 45.8C77.1122 45.096 78.4882 44.744 80.0455 44.744C81.5815 44.744 82.9042 45.096 84.0135 45.8C85.1442 46.4827 86.0082 47.3893 86.6055 48.52C87.2028 49.6507 87.5015 50.8667 87.5015 52.168C87.5015 52.4027 87.4908 52.6373 87.4695 52.872C87.4695 53.1067 87.4695 53.3733 87.4695 53.672H74.8295C74.8935 54.888 75.1708 55.9013 75.6615 56.712C76.1735 57.5013 76.8028 58.0987 77.5495 58.504C78.3175 58.9093 79.1282 59.112 79.9815 59.112C81.0908 59.112 82.0188 58.856 82.7655 58.344C83.5122 57.832 84.0562 57.1387 84.3975 56.264H87.0535C86.6268 57.736 85.8055 58.9627 84.5895 59.944C83.3948 60.904 81.8588 61.384 79.9815 61.384ZM79.9815 47.016C78.7015 47.016 77.5602 47.4107 76.5575 48.2C75.5762 48.968 75.0108 50.0987 74.8615 51.592H84.8455C84.7815 50.1627 84.2908 49.0427 83.3735 48.232C82.4562 47.4213 81.3255 47.016 79.9815 47.016ZM97.4002 61.384C95.8856 61.384 94.5202 61.0427 93.3042 60.36C92.1096 59.656 91.1602 58.6853 90.4562 57.448C89.7736 56.1893 89.4322 54.728 89.4322 53.064C89.4322 51.4 89.7736 49.9493 90.4562 48.712C91.1602 47.4533 92.1096 46.4827 93.3042 45.8C94.5202 45.096 95.8856 44.744 97.4002 44.744C99.2776 44.744 100.856 45.2347 102.136 46.216C103.438 47.1973 104.259 48.5093 104.6 50.152H101.848C101.635 49.1707 101.112 48.4133 100.28 47.88C99.4482 47.3253 98.4776 47.048 97.3682 47.048C96.4722 47.048 95.6296 47.272 94.8402 47.72C94.0509 48.168 93.4109 48.84 92.9202 49.736C92.4296 50.632 92.1842 51.7413 92.1842 53.064C92.1842 54.3867 92.4296 55.496 92.9202 56.392C93.4109 57.288 94.0509 57.9707 94.8402 58.44C95.6296 58.888 96.4722 59.112 97.3682 59.112C98.4776 59.112 99.4482 58.8453 100.28 58.312C101.112 57.7573 101.635 56.9787 101.848 55.976H104.6C104.28 57.576 103.47 58.8773 102.168 59.88C100.867 60.8827 99.2776 61.384 97.4002 61.384ZM109.026 41.608C108.493 41.608 108.045 41.4373 107.682 41.096C107.341 40.7333 107.17 40.2853 107.17 39.752C107.17 39.24 107.341 38.8133 107.682 38.472C108.045 38.1307 108.493 37.96 109.026 37.96C109.538 37.96 109.976 38.1307 110.338 38.472C110.701 38.8133 110.882 39.24 110.882 39.752C110.882 40.2853 110.701 40.7333 110.338 41.096C109.976 41.4373 109.538 41.608 109.026 41.608ZM107.682 61V45.128H110.37V61H107.682ZM119.371 61.384C118.048 61.384 116.949 61.16 116.075 60.712C115.2 60.264 114.549 59.6667 114.122 58.92C113.696 58.1733 113.482 57.3627 113.482 56.488C113.482 54.8667 114.101 53.6187 115.338 52.744C116.576 51.8693 118.261 51.432 120.394 51.432H124.682V51.24C124.682 49.8533 124.32 48.808 123.595 48.104C122.869 47.3787 121.899 47.016 120.682 47.016C119.637 47.016 118.731 47.2827 117.963 47.816C117.216 48.328 116.746 49.0853 116.555 50.088H113.802C113.909 48.936 114.293 47.9653 114.954 47.176C115.637 46.3867 116.48 45.7893 117.483 45.384C118.485 44.9573 119.552 44.744 120.682 44.744C122.901 44.744 124.565 45.3413 125.675 46.536C126.805 47.7093 127.371 49.2773 127.371 51.24V61H124.97L124.811 58.152C124.363 59.048 123.701 59.816 122.826 60.456C121.973 61.0747 120.821 61.384 119.371 61.384ZM119.786 59.112C120.811 59.112 121.685 58.8453 122.411 58.312C123.157 57.7787 123.723 57.0853 124.107 56.232C124.491 55.3787 124.682 54.4827 124.682 53.544V53.512H120.618C119.04 53.512 117.92 53.7893 117.259 54.344C116.619 54.8773 116.299 55.5493 116.299 56.36C116.299 57.192 116.597 57.864 117.194 58.376C117.813 58.8667 118.677 59.112 119.786 59.112ZM130.443 61V37.96H133.131V61H130.443ZM138.209 41.608C137.675 41.608 137.227 41.4373 136.865 41.096C136.523 40.7333 136.353 40.2853 136.353 39.752C136.353 39.24 136.523 38.8133 136.865 38.472C137.227 38.1307 137.675 37.96 138.209 37.96C138.721 37.96 139.158 38.1307 139.521 38.472C139.883 38.8133 140.065 39.24 140.065 39.752C140.065 40.2853 139.883 40.7333 139.521 41.096C139.158 41.4373 138.721 41.608 138.209 41.608ZM136.865 61V45.128H139.553V61H136.865ZM142.185 61V58.792L151.017 47.368H142.345V45.128H154.025V47.336L145.193 58.76H154.185V61H142.185ZM163.918 61.384C162.403 61.384 161.059 61.0427 159.886 60.36C158.712 59.656 157.784 58.6853 157.102 57.448C156.44 56.2107 156.11 54.7493 156.11 53.064C156.11 51.4 156.44 49.9493 157.102 48.712C157.763 47.4533 158.68 46.4827 159.854 45.8C161.048 45.096 162.424 44.744 163.982 44.744C165.518 44.744 166.84 45.096 167.95 45.8C169.08 46.4827 169.944 47.3893 170.542 48.52C171.139 49.6507 171.438 50.8667 171.438 52.168C171.438 52.4027 171.427 52.6373 171.406 52.872C171.406 53.1067 171.406 53.3733 171.406 53.672H158.766C158.83 54.888 159.107 55.9013 159.598 56.712C160.11 57.5013 160.739 58.0987 161.486 58.504C162.254 58.9093 163.064 59.112 163.918 59.112C165.027 59.112 165.955 58.856 166.702 58.344C167.448 57.832 167.992 57.1387 168.334 56.264H170.99C170.563 57.736 169.742 58.9627 168.526 59.944C167.331 60.904 165.795 61.384 163.918 61.384ZM163.918 47.016C162.638 47.016 161.496 47.4107 160.494 48.2C159.512 48.968 158.947 50.0987 158.798 51.592H168.782C168.718 50.1627 168.227 49.0427 167.31 48.232C166.392 47.4213 165.262 47.016 163.918 47.016ZM183.181 41.608C182.648 41.608 182.2 41.4373 181.837 41.096C181.496 40.7333 181.325 40.2853 181.325 39.752C181.325 39.24 181.496 38.8133 181.837 38.472C182.2 38.1307 182.648 37.96 183.181 37.96C183.693 37.96 184.131 38.1307 184.493 38.472C184.856 38.8133 185.037 39.24 185.037 39.752C185.037 40.2853 184.856 40.7333 184.493 41.096C184.131 41.4373 183.693 41.608 183.181 41.608ZM181.837 61V45.128H184.525V61H181.837ZM188.246 61V45.128H190.678L190.838 47.976C191.35 46.9733 192.086 46.184 193.046 45.608C194.006 45.032 195.094 44.744 196.31 44.744C198.187 44.744 199.68 45.32 200.79 46.472C201.92 47.6027 202.486 49.352 202.486 51.72V61H199.798V52.008C199.798 48.7013 198.432 47.048 195.702 47.048C194.336 47.048 193.195 47.5493 192.278 48.552C191.382 49.5333 190.934 50.9413 190.934 52.776V61H188.246ZM220.243 61.384C218.813 61.384 217.523 61.128 216.371 60.616C215.219 60.0827 214.291 59.2933 213.587 58.248C212.904 57.2027 212.541 55.9013 212.499 54.344H215.219C215.24 55.624 215.688 56.7333 216.563 57.672C217.437 58.5893 218.664 59.048 220.243 59.048C221.821 59.048 223.005 58.6107 223.795 57.736C224.605 56.8613 225.011 55.8053 225.011 54.568C225.011 53.5227 224.755 52.6693 224.243 52.008C223.752 51.3467 223.08 50.856 222.227 50.536C221.395 50.216 220.477 50.056 219.475 50.056H217.811V47.784H219.475C220.925 47.784 222.056 47.4533 222.867 46.792C223.699 46.1307 224.115 45.2027 224.115 44.008C224.115 43.0053 223.784 42.184 223.123 41.544C222.483 40.8827 221.523 40.552 220.243 40.552C219.005 40.552 218.013 40.9253 217.267 41.672C216.52 42.3973 216.104 43.3147 216.019 44.424H213.299C213.363 43.208 213.683 42.1307 214.259 41.192C214.856 40.2533 215.667 39.528 216.691 39.016C217.715 38.4827 218.899 38.216 220.243 38.216C221.693 38.216 222.899 38.472 223.859 38.984C224.84 39.496 225.576 40.1787 226.067 41.032C226.579 41.8853 226.835 42.824 226.835 43.848C226.835 44.9787 226.525 46.0133 225.907 46.952C225.288 47.8693 224.36 48.488 223.123 48.808C224.445 49.0853 225.544 49.7147 226.419 50.696C227.293 51.6773 227.731 52.968 227.731 54.568C227.731 55.8053 227.443 56.9467 226.867 57.992C226.312 59.016 225.48 59.8373 224.371 60.456C223.261 61.0747 221.885 61.384 220.243 61.384ZM231.119 61V38.6H237.999C241.946 38.6 244.847 39.6027 246.703 41.608C248.581 43.6133 249.519 46.3653 249.519 49.864C249.519 53.2987 248.581 56.0187 246.703 58.024C244.847 60.008 241.946 61 237.999 61H231.119ZM233.807 58.76H237.935C240.111 58.76 241.839 58.408 243.119 57.704C244.421 56.9787 245.349 55.9547 245.903 54.632C246.458 53.288 246.735 51.6987 246.735 49.864C246.735 47.9867 246.458 46.376 245.903 45.032C245.349 43.688 244.421 42.6533 243.119 41.928C241.839 41.2027 240.111 40.84 237.935 40.84H233.807V58.76ZM259.789 61V45.128H262.221L262.413 47.432C262.925 46.5787 263.608 45.9173 264.461 45.448C265.315 44.9787 266.275 44.744 267.341 44.744C268.6 44.744 269.677 45 270.573 45.512C271.491 46.024 272.195 46.8027 272.685 47.848C273.24 46.888 273.997 46.1307 274.957 45.576C275.939 45.0213 276.995 44.744 278.125 44.744C280.024 44.744 281.539 45.32 282.669 46.472C283.8 47.6027 284.365 49.352 284.365 51.72V61H281.709V52.008C281.709 50.3653 281.379 49.128 280.717 48.296C280.056 47.464 279.107 47.048 277.869 47.048C276.589 47.048 275.523 47.5493 274.669 48.552C273.837 49.5333 273.421 50.9413 273.421 52.776V61H270.733V52.008C270.733 50.3653 270.403 49.128 269.741 48.296C269.08 47.464 268.131 47.048 266.893 47.048C265.635 47.048 264.579 47.5493 263.725 48.552C262.893 49.5333 262.477 50.9413 262.477 52.776V61H259.789ZM294.686 61.384C293.193 61.384 291.849 61.0427 290.654 60.36C289.46 59.6773 288.51 58.7173 287.806 57.48C287.124 56.2213 286.782 54.7493 286.782 53.064C286.782 51.3787 287.134 49.9173 287.838 48.68C288.542 47.4213 289.492 46.4507 290.686 45.768C291.902 45.0853 293.257 44.744 294.75 44.744C296.244 44.744 297.588 45.0853 298.782 45.768C299.977 46.4507 300.916 47.4213 301.598 48.68C302.302 49.9173 302.654 51.3787 302.654 53.064C302.654 54.7493 302.302 56.2213 301.598 57.48C300.894 58.7173 299.934 59.6773 298.718 60.36C297.524 61.0427 296.18 61.384 294.686 61.384ZM294.686 59.08C295.604 59.08 296.457 58.856 297.246 58.408C298.036 57.96 298.676 57.288 299.166 56.392C299.657 55.496 299.902 54.3867 299.902 53.064C299.902 51.7413 299.657 50.632 299.166 49.736C298.697 48.84 298.068 48.168 297.278 47.72C296.489 47.272 295.646 47.048 294.75 47.048C293.833 47.048 292.98 47.272 292.19 47.72C291.401 48.168 290.761 48.84 290.27 49.736C289.78 50.632 289.534 51.7413 289.534 53.064C289.534 54.3867 289.78 55.496 290.27 56.392C290.761 57.288 291.39 57.96 292.158 58.408C292.948 58.856 293.79 59.08 294.686 59.08ZM312.632 61.384C311.053 61.384 309.666 61.0213 308.472 60.296C307.298 59.5707 306.381 58.5787 305.72 57.32C305.08 56.0613 304.76 54.632 304.76 53.032C304.76 51.432 305.09 50.0133 305.752 48.776C306.413 47.5173 307.33 46.536 308.504 45.832C309.677 45.1067 311.064 44.744 312.664 44.744C313.965 44.744 315.117 45.0107 316.12 45.544C317.122 46.0773 317.901 46.824 318.456 47.784V37.96H321.144V61H318.712L318.456 58.376C317.944 59.144 317.208 59.8373 316.248 60.456C315.288 61.0747 314.082 61.384 312.632 61.384ZM312.92 59.048C313.986 59.048 314.925 58.8027 315.736 58.312C316.568 57.8 317.208 57.096 317.656 56.2C318.125 55.304 318.36 54.2587 318.36 53.064C318.36 51.8693 318.125 50.824 317.656 49.928C317.208 49.032 316.568 48.3387 315.736 47.848C314.925 47.336 313.986 47.08 312.92 47.08C311.874 47.08 310.936 47.336 310.104 47.848C309.293 48.3387 308.653 49.032 308.184 49.928C307.736 50.824 307.512 51.8693 307.512 53.064C307.512 54.2587 307.736 55.304 308.184 56.2C308.653 57.096 309.293 57.8 310.104 58.312C310.936 58.8027 311.874 59.048 312.92 59.048ZM331.702 61.384C330.187 61.384 328.843 61.0427 327.67 60.36C326.496 59.656 325.568 58.6853 324.886 57.448C324.224 56.2107 323.894 54.7493 323.894 53.064C323.894 51.4 324.224 49.9493 324.886 48.712C325.547 47.4533 326.464 46.4827 327.638 45.8C328.832 45.096 330.208 44.744 331.766 44.744C333.302 44.744 334.624 45.096 335.734 45.8C336.864 46.4827 337.728 47.3893 338.326 48.52C338.923 49.6507 339.222 50.8667 339.222 52.168C339.222 52.4027 339.211 52.6373 339.19 52.872C339.19 53.1067 339.19 53.3733 339.19 53.672H326.55C326.614 54.888 326.891 55.9013 327.382 56.712C327.894 57.5013 328.523 58.0987 329.27 58.504C330.038 58.9093 330.848 59.112 331.702 59.112C332.811 59.112 333.739 58.856 334.486 58.344C335.232 57.832 335.776 57.1387 336.118 56.264H338.774C338.347 57.736 337.526 58.9627 336.31 59.944C335.115 60.904 333.579 61.384 331.702 61.384ZM331.702 47.016C330.422 47.016 329.28 47.4107 328.278 48.2C327.296 48.968 326.731 50.0987 326.582 51.592H336.566C336.502 50.1627 336.011 49.0427 335.094 48.232C334.176 47.4213 333.046 47.016 331.702 47.016ZM341.824 61V37.96H344.512V61H341.824ZM349.59 41.608C349.057 41.608 348.609 41.4373 348.246 41.096C347.905 40.7333 347.734 40.2853 347.734 39.752C347.734 39.24 347.905 38.8133 348.246 38.472C348.609 38.1307 349.057 37.96 349.59 37.96C350.102 37.96 350.539 38.1307 350.902 38.472C351.265 38.8133 351.446 39.24 351.446 39.752C351.446 40.2853 351.265 40.7333 350.902 41.096C350.539 41.4373 350.102 41.608 349.59 41.608ZM348.246 61V45.128H350.934V61H348.246ZM354.654 61V45.128H357.086L357.246 47.976C357.758 46.9733 358.494 46.184 359.454 45.608C360.414 45.032 361.502 44.744 362.718 44.744C364.596 44.744 366.089 45.32 367.198 46.472C368.329 47.6027 368.894 49.352 368.894 51.72V61H366.206V52.008C366.206 48.7013 364.841 47.048 362.11 47.048C360.745 47.048 359.604 47.5493 358.686 48.552C357.79 49.5333 357.342 50.9413 357.342 52.776V61H354.654ZM378.279 56.008C377.383 56.008 376.561 55.8907 375.815 55.656L374.215 57.16C374.449 57.3307 374.737 57.48 375.079 57.608C375.441 57.7147 375.953 57.8213 376.615 57.928C377.276 58.0133 378.204 58.1093 379.399 58.216C381.532 58.3653 383.057 58.856 383.975 59.688C384.892 60.52 385.351 61.608 385.351 62.952C385.351 63.8693 385.095 64.744 384.583 65.576C384.092 66.408 383.324 67.0907 382.279 67.624C381.255 68.1573 379.932 68.424 378.311 68.424C376.881 68.424 375.612 68.232 374.503 67.848C373.393 67.4853 372.529 66.92 371.911 66.152C371.292 65.4053 370.983 64.456 370.983 63.304C370.983 62.7067 371.143 62.056 371.463 61.352C371.783 60.6693 372.38 60.0187 373.255 59.4C372.785 59.208 372.38 59.0053 372.039 58.792C371.719 58.5573 371.42 58.3013 371.143 58.024V57.288L373.863 54.6C372.604 53.5333 371.975 52.1253 371.975 50.376C371.975 49.3307 372.22 48.3813 372.711 47.528C373.201 46.6747 373.916 46.0027 374.855 45.512C375.793 45 376.935 44.744 378.279 44.744C379.196 44.744 380.028 44.872 380.775 45.128H386.631V47.144L383.655 47.272C384.273 48.168 384.583 49.2027 384.583 50.376C384.583 51.4213 384.327 52.3707 383.815 53.224C383.324 54.0773 382.609 54.76 381.671 55.272C380.753 55.7627 379.623 56.008 378.279 56.008ZM378.279 53.8C379.409 53.8 380.305 53.512 380.967 52.936C381.649 52.3387 381.991 51.4853 381.991 50.376C381.991 49.288 381.649 48.456 380.967 47.88C380.305 47.2827 379.409 46.984 378.279 46.984C377.127 46.984 376.209 47.2827 375.527 47.88C374.865 48.456 374.535 49.288 374.535 50.376C374.535 51.4853 374.865 52.3387 375.527 52.936C376.209 53.512 377.127 53.8 378.279 53.8ZM373.607 63.048C373.607 64.1147 374.055 64.904 374.951 65.416C375.847 65.9493 376.967 66.216 378.311 66.216C379.633 66.216 380.689 65.928 381.479 65.352C382.289 64.776 382.695 64.008 382.695 63.048C382.695 62.3653 382.417 61.768 381.863 61.256C381.308 60.7653 380.284 60.4773 378.791 60.392C377.617 60.3067 376.604 60.2 375.751 60.072C374.876 60.5413 374.3 61.0427 374.023 61.576C373.745 62.1307 373.607 62.6213 373.607 63.048ZM402.996 61.384C401.46 61.384 400.105 61.1067 398.932 60.552C397.78 59.976 396.873 59.1867 396.212 58.184C395.572 57.16 395.252 55.9547 395.252 54.568C395.252 53.0533 395.689 51.7093 396.564 50.536C397.46 49.3413 398.75 48.4027 400.436 47.72C399.71 46.9307 399.188 46.184 398.868 45.48C398.548 44.7547 398.388 43.976 398.388 43.144C398.388 41.7147 398.889 40.5413 399.892 39.624C400.916 38.6853 402.313 38.216 404.084 38.216C405.236 38.216 406.238 38.44 407.092 38.888C407.945 39.3147 408.606 39.912 409.076 40.68C409.545 41.448 409.758 42.3227 409.716 43.304H407.06C407.081 42.344 406.782 41.6187 406.164 41.128C405.566 40.6373 404.873 40.392 404.084 40.392C403.124 40.392 402.377 40.648 401.844 41.16C401.31 41.672 401.044 42.3227 401.044 43.112C401.044 43.7947 401.225 44.456 401.588 45.096C401.972 45.736 402.537 46.4507 403.284 47.24L410.356 54.376C410.974 53.48 411.646 52.4027 412.372 51.144L413.364 49.416H416.212L414.804 51.912C413.865 53.5973 412.969 55.0053 412.116 56.136L416.948 61H413.556L410.58 57.992C409.449 59.208 408.276 60.0827 407.06 60.616C405.844 61.128 404.489 61.384 402.996 61.384ZM397.94 54.472C397.94 55.7947 398.409 56.8933 399.348 57.768C400.286 58.6427 401.513 59.08 403.028 59.08C404.158 59.08 405.182 58.8667 406.1 58.44C407.038 57.992 407.956 57.2667 408.852 56.264L402.068 49.384C400.66 49.9387 399.614 50.6427 398.932 51.496C398.27 52.3493 397.94 53.3413 397.94 54.472ZM432.47 61C431.019 61 429.878 60.648 429.046 59.944C428.214 59.24 427.798 57.9707 427.798 56.136V47.4H425.046V45.128H427.798L428.15 41.32H430.486V45.128H435.158V47.4H430.486V56.136C430.486 57.1387 430.689 57.8213 431.094 58.184C431.499 58.5253 432.214 58.696 433.238 58.696H434.902V61H432.47ZM444.311 61.384C442.797 61.384 441.453 61.0427 440.279 60.36C439.106 59.656 438.178 58.6853 437.495 57.448C436.834 56.2107 436.503 54.7493 436.503 53.064C436.503 51.4 436.834 49.9493 437.495 48.712C438.157 47.4533 439.074 46.4827 440.247 45.8C441.442 45.096 442.818 44.744 444.375 44.744C445.911 44.744 447.234 45.096 448.343 45.8C449.474 46.4827 450.338 47.3893 450.935 48.52C451.533 49.6507 451.831 50.8667 451.831 52.168C451.831 52.4027 451.821 52.6373 451.799 52.872C451.799 53.1067 451.799 53.3733 451.799 53.672H439.159C439.223 54.888 439.501 55.9013 439.991 56.712C440.503 57.5013 441.133 58.0987 441.879 58.504C442.647 58.9093 443.458 59.112 444.311 59.112C445.421 59.112 446.349 58.856 447.095 58.344C447.842 57.832 448.386 57.1387 448.727 56.264H451.383C450.957 57.736 450.135 58.9627 448.919 59.944C447.725 60.904 446.189 61.384 444.311 61.384ZM444.311 47.016C443.031 47.016 441.89 47.4107 440.887 48.2C439.906 48.968 439.341 50.0987 439.191 51.592H449.175C449.111 50.1627 448.621 49.0427 447.703 48.232C446.786 47.4213 445.655 47.016 444.311 47.016ZM452.084 61L457.588 53.064L452.084 45.128H454.996L459.444 51.688L463.924 45.128H466.804L461.3 53.064L466.804 61H463.924L459.444 54.44L454.996 61H452.084ZM474.934 61C473.483 61 472.342 60.648 471.51 59.944C470.678 59.24 470.262 57.9707 470.262 56.136V47.4H467.51V45.128H470.262L470.614 41.32H472.95V45.128H477.622V47.4H472.95V56.136C472.95 57.1387 473.152 57.8213 473.558 58.184C473.963 58.5253 474.678 58.696 475.702 58.696H477.366V61H474.934ZM493.965 45.128V61H491.533L491.373 58.152C490.861 59.1547 490.125 59.944 489.165 60.52C488.205 61.096 487.117 61.384 485.901 61.384C484.023 61.384 482.519 60.8187 481.389 59.688C480.279 58.536 479.725 56.776 479.725 54.408V45.128H482.413V54.12C482.413 57.4267 483.778 59.08 486.509 59.08C487.874 59.08 489.005 58.5893 489.901 57.608C490.818 56.6053 491.277 55.1867 491.277 53.352V45.128H493.965ZM497.429 61V45.128H499.861L500.085 48.168C500.576 47.1227 501.323 46.2907 502.325 45.672C503.328 45.0533 504.565 44.744 506.037 44.744V47.56H505.301C504.363 47.56 503.499 47.7307 502.709 48.072C501.92 48.392 501.291 48.9467 500.821 49.736C500.352 50.5253 500.117 51.6133 500.117 53V61H497.429ZM509.726 41.608C509.193 41.608 508.745 41.4373 508.382 41.096C508.041 40.7333 507.87 40.2853 507.87 39.752C507.87 39.24 508.041 38.8133 508.382 38.472C508.745 38.1307 509.193 37.96 509.726 37.96C510.238 37.96 510.676 38.1307 511.038 38.472C511.401 38.8133 511.582 39.24 511.582 39.752C511.582 40.2853 511.401 40.7333 511.038 41.096C510.676 41.4373 510.238 41.608 509.726 41.608ZM508.382 61V45.128H511.07V61H508.382ZM514.791 61V45.128H517.223L517.383 47.976C517.895 46.9733 518.631 46.184 519.591 45.608C520.551 45.032 521.639 44.744 522.855 44.744C524.732 44.744 526.225 45.32 527.335 46.472C528.465 47.6027 529.031 49.352 529.031 51.72V61H526.343V52.008C526.343 48.7013 524.977 47.048 522.247 47.048C520.881 47.048 519.74 47.5493 518.823 48.552C517.927 49.5333 517.479 50.9413 517.479 52.776V61H514.791ZM538.415 56.008C537.519 56.008 536.698 55.8907 535.951 55.656L534.351 57.16C534.586 57.3307 534.874 57.48 535.215 57.608C535.578 57.7147 536.09 57.8213 536.751 57.928C537.412 58.0133 538.34 58.1093 539.535 58.216C541.668 58.3653 543.194 58.856 544.111 59.688C545.028 60.52 545.487 61.608 545.487 62.952C545.487 63.8693 545.231 64.744 544.719 65.576C544.228 66.408 543.46 67.0907 542.415 67.624C541.391 68.1573 540.068 68.424 538.447 68.424C537.018 68.424 535.748 68.232 534.639 67.848C533.53 67.4853 532.666 66.92 532.047 66.152C531.428 65.4053 531.119 64.456 531.119 63.304C531.119 62.7067 531.279 62.056 531.599 61.352C531.919 60.6693 532.516 60.0187 533.391 59.4C532.922 59.208 532.516 59.0053 532.175 58.792C531.855 58.5573 531.556 58.3013 531.279 58.024V57.288L533.999 54.6C532.74 53.5333 532.111 52.1253 532.111 50.376C532.111 49.3307 532.356 48.3813 532.847 47.528C533.338 46.6747 534.052 46.0027 534.991 45.512C535.93 45 537.071 44.744 538.415 44.744C539.332 44.744 540.164 44.872 540.911 45.128H546.767V47.144L543.791 47.272C544.41 48.168 544.719 49.2027 544.719 50.376C544.719 51.4213 544.463 52.3707 543.951 53.224C543.46 54.0773 542.746 54.76 541.807 55.272C540.89 55.7627 539.759 56.008 538.415 56.008ZM538.415 53.8C539.546 53.8 540.442 53.512 541.103 52.936C541.786 52.3387 542.127 51.4853 542.127 50.376C542.127 49.288 541.786 48.456 541.103 47.88C540.442 47.2827 539.546 46.984 538.415 46.984C537.263 46.984 536.346 47.2827 535.663 47.88C535.002 48.456 534.671 49.288 534.671 50.376C534.671 51.4853 535.002 52.3387 535.663 52.936C536.346 53.512 537.263 53.8 538.415 53.8ZM533.743 63.048C533.743 64.1147 534.191 64.904 535.087 65.416C535.983 65.9493 537.103 66.216 538.447 66.216C539.77 66.216 540.826 65.928 541.615 65.352C542.426 64.776 542.831 64.008 542.831 63.048C542.831 62.3653 542.554 61.768 541.999 61.256C541.444 60.7653 540.42 60.4773 538.927 60.392C537.754 60.3067 536.74 60.2 535.887 60.072C535.012 60.5413 534.436 61.0427 534.159 61.576C533.882 62.1307 533.743 62.6213 533.743 63.048ZM549.767 61.16C549.234 61.16 548.786 60.9893 548.423 60.648C548.082 60.2853 547.911 59.848 547.911 59.336C547.911 58.824 548.082 58.3973 548.423 58.056C548.786 57.6933 549.234 57.512 549.767 57.512C550.279 57.512 550.706 57.6933 551.047 58.056C551.41 58.3973 551.591 58.824 551.591 59.336C551.591 59.848 551.41 60.2853 551.047 60.648C550.706 60.9893 550.279 61.16 549.767 61.16Z" fill="#606060"/>
</svg>
