<svg width="246" height="18" viewBox="0 0 246 18" fill="none" xmlns="http://www.w3.org/2000/svg">
<path d="M0.43821 0.909091V14H2.31747V4.5206H2.43892L6.29972 13.9808H7.85938L11.7202 4.52699H11.8416V14H13.7209V0.909091H11.3239L7.15625 11.0852H7.00284L2.83523 0.909091H0.43821ZM20.3687 14.1982C23.1365 14.1982 24.9454 12.1719 24.9454 9.13565C24.9454 6.08026 23.1365 4.05398 20.3687 4.05398C17.601 4.05398 15.792 6.08026 15.792 9.13565C15.792 12.1719 17.601 14.1982 20.3687 14.1982ZM20.3751 12.5938C18.5662 12.5938 17.7224 11.0149 17.7224 9.12926C17.7224 7.25 18.5662 5.65199 20.3751 5.65199C22.1713 5.65199 23.015 7.25 23.015 9.12926C23.015 11.0149 22.1713 12.5938 20.3751 12.5938ZM26.5388 14H28.45V8.00426C28.45 6.72585 29.4408 5.79901 30.7639 5.79901C31.1347 5.79901 31.4223 5.87571 31.6524 5.99077L32.2661 4.39276C31.9401 4.17543 31.5182 4.0348 30.9813 4.0348C29.8179 4.0348 28.8463 4.68679 28.4884 5.74148H28.3861V4.18182H26.5388V14ZM37.0506 14.1982C39.192 14.1982 40.7069 13.1435 41.1415 11.5455L39.3326 11.2195C38.9874 12.1463 38.1565 12.6193 37.0698 12.6193C35.4334 12.6193 34.334 11.5582 34.2829 9.66619H41.263V8.98864C41.263 5.44105 39.1408 4.05398 36.9164 4.05398C34.1806 4.05398 32.378 6.13778 32.378 9.15483C32.378 12.2038 34.155 14.1982 37.0506 14.1982ZM34.2893 8.23438C34.366 6.84091 35.3759 5.63281 36.9292 5.63281C38.4121 5.63281 39.3837 6.73224 39.3901 8.23438H34.2893ZM54.4245 6.57884C54.0282 5.05114 52.8328 4.05398 50.7107 4.05398C48.4926 4.05398 46.9202 5.22372 46.9202 6.96236C46.9202 8.35582 47.764 9.28267 49.6049 9.69176L51.2668 10.0561C52.2128 10.267 52.6539 10.6889 52.6539 11.3026C52.6539 12.0632 51.8421 12.6577 50.5892 12.6577C49.4451 12.6577 48.71 12.1655 48.4799 11.2003L46.6326 11.4815C46.9522 13.2202 48.3968 14.1982 50.602 14.1982C52.9735 14.1982 54.6162 12.9389 54.6162 11.1619C54.6162 9.77486 53.7341 8.91832 51.9316 8.50284L50.3719 8.14489C49.2917 7.8892 48.825 7.52486 48.8314 6.86009C48.825 6.10582 49.6432 5.56889 50.7299 5.56889C51.9188 5.56889 52.4685 6.22727 52.6922 6.88565L54.4245 6.57884ZM58.0888 8.17045C58.0888 6.6044 59.0796 5.70952 60.4411 5.70952C61.7579 5.70952 62.5441 6.54688 62.5441 7.98509V14H64.4553V7.75497C64.4553 5.30682 63.113 4.05398 61.0931 4.05398C59.5654 4.05398 58.6449 4.71875 58.1847 5.77983H58.0633V0.909091H56.1776V14H58.0888V8.17045ZM70.6014 14.1982C73.3691 14.1982 75.1781 12.1719 75.1781 9.13565C75.1781 6.08026 73.3691 4.05398 70.6014 4.05398C67.8336 4.05398 66.0247 6.08026 66.0247 9.13565C66.0247 12.1719 67.8336 14.1982 70.6014 14.1982ZM70.6078 12.5938C68.7988 12.5938 67.9551 11.0149 67.9551 9.12926C67.9551 7.25 68.7988 5.65199 70.6078 5.65199C72.404 5.65199 73.2477 7.25 73.2477 9.12926C73.2477 11.0149 72.404 12.5938 70.6078 12.5938ZM81.3545 4.18182H79.341V1.82955H77.4298V4.18182H75.9916V5.71591H77.4298V11.5135C77.4234 13.2969 78.7849 14.1598 80.2935 14.1278C80.9007 14.1214 81.3098 14.0064 81.5335 13.9233L81.1883 12.3445C81.0605 12.37 80.824 12.4276 80.5172 12.4276C79.8972 12.4276 79.341 12.223 79.341 11.1172V5.71591H81.3545V4.18182ZM90.1277 6.57884C89.7314 5.05114 88.5361 4.05398 86.414 4.05398C84.1959 4.05398 82.6235 5.22372 82.6235 6.96236C82.6235 8.35582 83.4672 9.28267 85.3081 9.69176L86.9701 10.0561C87.9161 10.267 88.3572 10.6889 88.3572 11.3026C88.3572 12.0632 87.5454 12.6577 86.2925 12.6577C85.1483 12.6577 84.4133 12.1655 84.1831 11.2003L82.3358 11.4815C82.6554 13.2202 84.1 14.1982 86.3053 14.1982C88.6768 14.1982 90.3195 12.9389 90.3195 11.1619C90.3195 9.77486 89.4374 8.91832 87.6349 8.50284L86.0752 8.14489C84.9949 7.8892 84.5283 7.52486 84.5347 6.86009C84.5283 6.10582 85.3465 5.56889 86.4331 5.56889C87.6221 5.56889 88.1718 6.22727 88.3955 6.88565L90.1277 6.57884ZM100.809 4.18182H98.6933V3.29972C98.6933 2.4304 99.0513 1.95739 99.9845 1.95739C100.381 1.95739 100.662 2.04688 100.841 2.1044L101.289 0.557528C101.02 0.455255 100.464 0.295454 99.6905 0.295454C98.1372 0.295454 96.7757 1.20312 96.7757 3.04403V4.18182H95.2608V5.71591H96.7757V14H98.6933V5.71591H100.809V4.18182ZM102.244 14H104.155V8.00426C104.155 6.72585 105.146 5.79901 106.469 5.79901C106.84 5.79901 107.128 5.87571 107.358 5.99077L107.972 4.39276C107.646 4.17543 107.224 4.0348 106.687 4.0348C105.523 4.0348 104.552 4.68679 104.194 5.74148H104.092V4.18182H102.244V14ZM112.66 14.1982C115.428 14.1982 117.237 12.1719 117.237 9.13565C117.237 6.08026 115.428 4.05398 112.66 4.05398C109.892 4.05398 108.084 6.08026 108.084 9.13565C108.084 12.1719 109.892 14.1982 112.66 14.1982ZM112.667 12.5938C110.858 12.5938 110.014 11.0149 110.014 9.12926C110.014 7.25 110.858 5.65199 112.667 5.65199C114.463 5.65199 115.307 7.25 115.307 9.12926C115.307 11.0149 114.463 12.5938 112.667 12.5938ZM118.83 14H120.741V7.94673C120.741 6.62358 121.668 5.70312 122.755 5.70312C123.816 5.70312 124.551 6.40625 124.551 7.47372V14H126.456V7.74219C126.456 6.55966 127.178 5.70312 128.425 5.70312C129.435 5.70312 130.266 6.26562 130.266 7.59517V14H132.177V7.41619C132.177 5.17259 130.924 4.05398 129.147 4.05398C127.734 4.05398 126.673 4.73153 126.2 5.77983H126.098C125.67 4.70597 124.768 4.05398 123.458 4.05398C122.161 4.05398 121.195 4.69957 120.786 5.77983H120.665V4.18182H118.83V14ZM143.005 4.18182H140.992V1.82955H139.081V4.18182H137.642V5.71591H139.081V11.5135C139.074 13.2969 140.436 14.1598 141.944 14.1278C142.551 14.1214 142.96 14.0064 143.184 13.9233L142.839 12.3445C142.711 12.37 142.475 12.4276 142.168 12.4276C141.548 12.4276 140.992 12.223 140.992 11.1172V5.71591H143.005V4.18182ZM146.702 8.17045C146.702 6.6044 147.692 5.70952 149.054 5.70952C150.371 5.70952 151.157 6.54688 151.157 7.98509V14H153.068V7.75497C153.068 5.30682 151.726 4.05398 149.706 4.05398C148.178 4.05398 147.258 4.71875 146.797 5.77983H146.676V0.909091H144.79V14H146.702V8.17045ZM155.078 14H156.99V4.18182H155.078V14ZM156.044 2.6669C156.702 2.6669 157.252 2.15554 157.252 1.52912C157.252 0.902698 156.702 0.384943 156.044 0.384943C155.379 0.384943 154.836 0.902698 154.836 1.52912C154.836 2.15554 155.379 2.6669 156.044 2.6669ZM166.378 6.57884C165.982 5.05114 164.787 4.05398 162.664 4.05398C160.446 4.05398 158.874 5.22372 158.874 6.96236C158.874 8.35582 159.718 9.28267 161.559 9.69176L163.22 10.0561C164.166 10.267 164.608 10.6889 164.608 11.3026C164.608 12.0632 163.796 12.6577 162.543 12.6577C161.399 12.6577 160.664 12.1655 160.434 11.2003L158.586 11.4815C158.906 13.2202 160.35 14.1982 162.556 14.1982C164.927 14.1982 166.57 12.9389 166.57 11.1619C166.57 9.77486 165.688 8.91832 163.885 8.50284L162.326 8.14489C161.245 7.8892 160.779 7.52486 160.785 6.86009C160.779 6.10582 161.597 5.56889 162.684 5.56889C163.872 5.56889 164.422 6.22727 164.646 6.88565L166.378 6.57884ZM172.355 17.6818H174.266V12.4723H174.381C174.726 13.0987 175.43 14.1918 177.219 14.1918C179.597 14.1918 181.323 12.2869 181.323 9.11009C181.323 5.92685 179.572 4.05398 177.2 4.05398C175.378 4.05398 174.72 5.16619 174.381 5.77344H174.221V4.18182H172.355V17.6818ZM174.228 9.09091C174.228 7.03906 175.123 5.67756 176.791 5.67756C178.523 5.67756 179.393 7.14134 179.393 9.09091C179.393 11.0597 178.498 12.5618 176.791 12.5618C175.148 12.5618 174.228 11.1555 174.228 9.09091ZM182.924 14H184.836V8.00426C184.836 6.72585 185.826 5.79901 187.149 5.79901C187.52 5.79901 187.808 5.87571 188.038 5.99077L188.652 4.39276C188.326 4.17543 187.904 4.0348 187.367 4.0348C186.203 4.0348 185.232 4.68679 184.874 5.74148H184.772V4.18182H182.924V14ZM193.34 14.1982C196.108 14.1982 197.917 12.1719 197.917 9.13565C197.917 6.08026 196.108 4.05398 193.34 4.05398C190.573 4.05398 188.764 6.08026 188.764 9.13565C188.764 12.1719 190.573 14.1982 193.34 14.1982ZM193.347 12.5938C191.538 12.5938 190.694 11.0149 190.694 9.12926C190.694 7.25 191.538 5.65199 193.347 5.65199C195.143 5.65199 195.987 7.25 195.987 9.12926C195.987 11.0149 195.143 12.5938 193.347 12.5938ZM199.51 4.18182V14.6136C199.51 15.5277 199.133 16.0263 198.226 16.0263C198.117 16.0263 198.034 16.0263 197.919 16.0199V17.669H198.289C200.341 17.6946 201.422 16.5952 201.422 14.6264V4.18182H199.51ZM200.456 2.6669C201.115 2.6669 201.664 2.15554 201.664 1.52912C201.664 0.902698 201.115 0.384943 200.456 0.384943C199.792 0.384943 199.248 0.902698 199.248 1.52912C199.248 2.15554 199.792 2.6669 200.456 2.6669ZM207.684 14.1982C209.826 14.1982 211.341 13.1435 211.775 11.5455L209.966 11.2195C209.621 12.1463 208.79 12.6193 207.703 12.6193C206.067 12.6193 204.968 11.5582 204.917 9.66619H211.897V8.98864C211.897 5.44105 209.775 4.05398 207.55 4.05398C204.814 4.05398 203.012 6.13778 203.012 9.15483C203.012 12.2038 204.789 14.1982 207.684 14.1982ZM204.923 8.23438C205 6.84091 206.01 5.63281 207.563 5.63281C209.046 5.63281 210.017 6.73224 210.024 8.23438H204.923ZM217.613 14.1982C219.933 14.1982 221.435 12.8047 221.646 10.8935H219.786C219.543 11.9545 218.719 12.581 217.626 12.581C216.008 12.581 214.967 11.2322 214.967 9.09091C214.967 6.98793 216.028 5.66477 217.626 5.66477C218.84 5.66477 219.582 6.43182 219.786 7.35227H221.646C221.442 5.37074 219.825 4.05398 217.594 4.05398C214.826 4.05398 213.036 6.13778 213.036 9.13565C213.036 12.0952 214.762 14.1982 217.613 14.1982ZM227.733 4.18182H225.72V1.82955H223.808V4.18182H222.37V5.71591H223.808V11.5135C223.802 13.2969 225.164 14.1598 226.672 14.1278C227.279 14.1214 227.688 14.0064 227.912 13.9233L227.567 12.3445C227.439 12.37 227.203 12.4276 226.896 12.4276C226.276 12.4276 225.72 12.223 225.72 11.1172V5.71591H227.733V4.18182ZM236.938 10.804L244.033 3.69602L244.02 9.12926H245.65V0.909091H237.437L237.424 2.52628H242.857L235.768 9.62784L236.938 10.804Z" fill="#181717"/>
<path d="M-1 17.5987H249.428V18.9922H-1V17.5987Z" fill="#181717"/>
</svg>
